<mxfile modified="2022-10-17T17:21:35.169Z" host="app.diagrams.net" agent="5.0 (Windows)" etag="INa8OkOnSCjUwdiB6Gy1" version="20.4.1" type="github" pages="2">
  <diagram name="Simplified v2" id="2etnrcAq5zjSbi8A3pP0">
    <mxGraphModel dx="1422" dy="813" grid="1" gridSize="10" guides="1" tooltips="1" connect="1" arrows="1" fold="1" page="1" pageScale="1" pageWidth="850" pageHeight="1100" math="0" shadow="0">
      <root>
        <mxCell id="-mIu3kfPHVClgdqaARXv-0" />
        <object label="Infrastructure" id="-mIu3kfPHVClgdqaARXv-1">
          <mxCell style="" visible="0" parent="-mIu3kfPHVClgdqaARXv-0" />
        </object>
        <mxCell id="-mIu3kfPHVClgdqaARXv-2" value="" style="whiteSpace=wrap;html=1;fontFamily=Helvetica;align=center;rounded=1;fillColor=none;strokeColor=#d79b00;dashed=1;movable=1;resizable=1;rotatable=1;deletable=1;editable=1;connectable=1;" vertex="1" parent="-mIu3kfPHVClgdqaARXv-1">
          <mxGeometry x="10" y="190" width="80" height="130" as="geometry" />
        </mxCell>
        <mxCell id="-mIu3kfPHVClgdqaARXv-3" style="edgeStyle=orthogonalEdgeStyle;rounded=0;orthogonalLoop=1;jettySize=auto;html=1;exitX=0.5;exitY=1;exitDx=0;exitDy=0;exitPerimeter=0;entryX=0.5;entryY=0;entryDx=0;entryDy=0;endArrow=none;endFill=0;strokeWidth=1;fontColor=#D79B00;fillColor=#ffe6cc;strokeColor=#d79b00;" edge="1" parent="-mIu3kfPHVClgdqaARXv-1" source="-mIu3kfPHVClgdqaARXv-4" target="-mIu3kfPHVClgdqaARXv-2">
          <mxGeometry relative="1" as="geometry" />
        </mxCell>
        <mxCell id="-mIu3kfPHVClgdqaARXv-4" value="&lt;div style=&quot;text-align: center&quot;&gt;&lt;span&gt;Infrastructure&lt;/span&gt;&lt;/div&gt;&lt;div style=&quot;text-align: center&quot;&gt;&lt;span&gt;environment&lt;/span&gt;&lt;/div&gt;" style="shape=note;whiteSpace=wrap;html=1;size=6;verticalAlign=top;align=center;spacingTop=-6;fontFamily=Helvetica;fontStyle=1;fillColor=#ffe6cc;strokeColor=#d79b00;" vertex="1" parent="-mIu3kfPHVClgdqaARXv-1">
          <mxGeometry x="4" y="147" width="95" height="30" as="geometry" />
        </mxCell>
        <mxCell id="-mIu3kfPHVClgdqaARXv-5" value="" style="shape=curlyBracket;whiteSpace=wrap;html=1;rounded=1;strokeColor=#d79b00;fillColor=#ffe6cc;fontFamily=Helvetica;align=center;rotation=0;size=0.7692307692307693;spacingTop=-7;spacing=3;" vertex="1" parent="-mIu3kfPHVClgdqaARXv-1">
          <mxGeometry x="60" y="140" width="58" height="199" as="geometry" />
        </mxCell>
        <mxCell id="-mIu3kfPHVClgdqaARXv-6" value="" style="edgeStyle=orthogonalEdgeStyle;rounded=0;orthogonalLoop=1;jettySize=auto;html=1;endArrow=none;endFill=0;strokeWidth=1;fillColor=#ffe6cc;strokeColor=#d79b00;" edge="1" parent="-mIu3kfPHVClgdqaARXv-1" source="-mIu3kfPHVClgdqaARXv-7">
          <mxGeometry relative="1" as="geometry">
            <mxPoint x="45" y="283" as="targetPoint" />
          </mxGeometry>
        </mxCell>
        <mxCell id="-mIu3kfPHVClgdqaARXv-7" value="" style="shadow=0;dashed=0;html=1;strokeColor=#d79b00;labelPosition=center;verticalLabelPosition=bottom;verticalAlign=top;align=center;shape=mxgraph.azure.server;fillColor=#ffe6cc;labelBackgroundColor=#ffffff;" vertex="1" parent="-mIu3kfPHVClgdqaARXv-1">
          <mxGeometry x="20" y="233" width="50" height="15" as="geometry" />
        </mxCell>
        <mxCell id="-mIu3kfPHVClgdqaARXv-8" value="&lt;b&gt;production&lt;/b&gt;&lt;br&gt;&lt;div style=&quot;text-align: center&quot;&gt;&lt;span&gt;network&lt;/span&gt;&lt;/div&gt;" style="text;html=1;fontColor=#D79B00;" vertex="1" parent="-mIu3kfPHVClgdqaARXv-1">
          <mxGeometry x="19" y="280" width="60" height="30" as="geometry" />
        </mxCell>
        <mxCell id="-mIu3kfPHVClgdqaARXv-9" value="&lt;b&gt;production&lt;br&gt;&lt;/b&gt;&lt;div style=&quot;text-align: center&quot;&gt;&lt;span&gt;infrastructure&lt;/span&gt;&lt;/div&gt;" style="text;html=1;fontColor=#D79B00;align=center;" vertex="1" parent="-mIu3kfPHVClgdqaARXv-1">
          <mxGeometry x="9" y="193" width="80" height="30" as="geometry" />
        </mxCell>
        <mxCell id="-mIu3kfPHVClgdqaARXv-10" value="" style="endArrow=none;html=1;fillColor=#ffe6cc;strokeColor=#d79b00;strokeWidth=8;" edge="1" parent="-mIu3kfPHVClgdqaARXv-1">
          <mxGeometry width="50" height="50" relative="1" as="geometry">
            <mxPoint x="15.000000000000114" y="279.5" as="sourcePoint" />
            <mxPoint x="80" y="279" as="targetPoint" />
          </mxGeometry>
        </mxCell>
        <mxCell id="-mIu3kfPHVClgdqaARXv-11" value="" style="endArrow=none;html=1;fillColor=#ffe6cc;strokeColor=#d79b00;strokeWidth=1;" edge="1" parent="-mIu3kfPHVClgdqaARXv-1">
          <mxGeometry width="50" height="50" relative="1" as="geometry">
            <mxPoint x="105" y="263.4999999999999" as="sourcePoint" />
            <mxPoint x="121" y="263" as="targetPoint" />
          </mxGeometry>
        </mxCell>
        <mxCell id="-mIu3kfPHVClgdqaARXv-12" parent="-mIu3kfPHVClgdqaARXv-0" />
        <mxCell id="-mIu3kfPHVClgdqaARXv-13" value="" style="whiteSpace=wrap;html=1;labelBackgroundColor=#ffffff;strokeColor=#666666;strokeWidth=1;fillColor=#f5f5f5;align=center;rounded=1;movable=1;resizable=1;rotatable=1;deletable=1;editable=1;connectable=1;arcSize=3;fontColor=#333333;" vertex="1" parent="-mIu3kfPHVClgdqaARXv-12">
          <mxGeometry x="30" y="290" width="710" height="220" as="geometry" />
        </mxCell>
        <mxCell id="-mIu3kfPHVClgdqaARXv-14" value="" style="whiteSpace=wrap;html=1;labelBackgroundColor=#ffffff;strokeColor=#82b366;strokeWidth=1;fillColor=#d5e8d4;align=center;rounded=1;movable=1;resizable=1;rotatable=1;deletable=1;editable=1;connectable=1;arcSize=3;" vertex="1" parent="-mIu3kfPHVClgdqaARXv-12">
          <mxGeometry x="286" y="300" width="444" height="200" as="geometry" />
        </mxCell>
        <mxCell id="-mIu3kfPHVClgdqaARXv-15" value="" style="whiteSpace=wrap;html=1;labelBackgroundColor=#ffffff;strokeColor=#b85450;strokeWidth=1;fillColor=#f8cecc;align=center;rounded=1;movable=1;resizable=1;rotatable=1;deletable=1;editable=1;connectable=1;arcSize=3;" vertex="1" parent="-mIu3kfPHVClgdqaARXv-12">
          <mxGeometry x="502" y="344" width="216" height="146" as="geometry" />
        </mxCell>
        <mxCell id="-mIu3kfPHVClgdqaARXv-16" value="" style="whiteSpace=wrap;html=1;labelBackgroundColor=#ffffff;strokeColor=#6c8ebf;strokeWidth=1;fillColor=#dae8fc;align=center;rounded=1;movable=1;resizable=1;rotatable=1;deletable=1;editable=1;connectable=1;arcSize=3;" vertex="1" parent="-mIu3kfPHVClgdqaARXv-12">
          <mxGeometry x="54" y="344" width="200" height="156" as="geometry" />
        </mxCell>
        <mxCell id="-mIu3kfPHVClgdqaARXv-17" value="&lt;div&gt;&lt;b&gt;/etc/puppetlabs/code/&lt;/b&gt;&lt;/div&gt;&lt;div&gt;&amp;nbsp; environments/&lt;/div&gt;&lt;font color=&quot;#b85450&quot;&gt;&amp;nbsp;&amp;nbsp;&amp;nbsp; &lt;b&gt;development&lt;/b&gt;/&lt;br&gt;&lt;/font&gt;&lt;div&gt;&lt;font color=&quot;#3333ff&quot;&gt;&amp;nbsp;&amp;nbsp; &amp;nbsp;&amp;nbsp; &lt;b&gt;&lt;font color=&quot;#6c8ebf&quot;&gt;hiera.yaml&lt;/font&gt;&lt;/b&gt;&lt;/font&gt;&lt;/div&gt;&lt;div&gt;&lt;font color=&quot;#3333ff&quot;&gt;&amp;nbsp; &amp;nbsp; &amp;nbsp; &lt;/font&gt;&lt;b&gt;&lt;font color=&quot;#6c8ebf&quot;&gt;data/&lt;/font&gt;&lt;/b&gt;&lt;/div&gt;&lt;div&gt;&lt;font color=&quot;#6c8ebf&quot;&gt;&lt;span&gt;&amp;nbsp;&amp;nbsp; &amp;nbsp;&amp;nbsp; Puppetfile&lt;br&gt;&lt;/span&gt;&lt;/font&gt;&lt;/div&gt;&lt;div&gt;&lt;font color=&quot;#6c8ebf&quot;&gt;&lt;span&gt;&lt;font color=&quot;#3333ff&quot;&gt;&amp;nbsp; &amp;nbsp; &amp;nbsp; &lt;/font&gt;modules/*/&lt;/span&gt;&lt;/font&gt;&lt;font color=&quot;#6c8ebf&quot;&gt;&lt;span&gt;&lt;/span&gt;&lt;/font&gt;&lt;/div&gt;&lt;div&gt;&lt;div&gt;&lt;font color=&quot;#6c8ebf&quot;&gt;&lt;span&gt;&lt;font color=&quot;#3333ff&quot;&gt;&amp;nbsp; &amp;nbsp; &amp;nbsp; &lt;/font&gt;site-modules/&lt;/span&gt;&lt;/font&gt;&lt;font color=&quot;#6c8ebf&quot;&gt;&lt;span&gt;&lt;/span&gt;&lt;/font&gt;&lt;/div&gt;&lt;/div&gt;&lt;div&gt;&lt;br&gt;&lt;/div&gt;&lt;div&gt;&lt;font color=&quot;#6c8ebf&quot;&gt;&lt;span&gt;&lt;/span&gt;&lt;/font&gt;&lt;/div&gt;&lt;font color=&quot;#6c8ebf&quot;&gt;&lt;br&gt;&lt;/font&gt;" style="text;html=1;resizable=1;points=[];autosize=1;align=left;verticalAlign=top;spacingTop=-4;fontColor=#000000;fontFamily=Courier New;movable=1;rotatable=1;deletable=1;editable=1;connectable=1;" vertex="1" parent="-mIu3kfPHVClgdqaARXv-12">
          <mxGeometry x="74" y="377" width="170" height="150" as="geometry" />
        </mxCell>
        <mxCell id="-mIu3kfPHVClgdqaARXv-23" value="" style="whiteSpace=wrap;html=1;labelBackgroundColor=#ffffff;strokeColor=#D79B00;strokeWidth=1;fillColor=#fff2cc;align=center;rounded=1;movable=1;resizable=1;rotatable=1;deletable=1;editable=1;connectable=1;arcSize=3;" vertex="1" parent="-mIu3kfPHVClgdqaARXv-12">
          <mxGeometry x="304" y="344" width="166" height="146" as="geometry" />
        </mxCell>
        <mxCell id="-mIu3kfPHVClgdqaARXv-24" value="" style="group" vertex="1" connectable="0" parent="-mIu3kfPHVClgdqaARXv-12">
          <mxGeometry x="292" y="334" width="30" height="23" as="geometry" />
        </mxCell>
        <mxCell id="-mIu3kfPHVClgdqaARXv-25" value="" style="whiteSpace=wrap;html=1;rounded=0;labelBackgroundColor=#ffffff;strokeColor=none;strokeWidth=2;fillColor=#D79B00;gradientColor=none;fontColor=#D79B00;align=center;" vertex="1" parent="-mIu3kfPHVClgdqaARXv-24">
          <mxGeometry y="12" width="30" height="11" as="geometry" />
        </mxCell>
        <mxCell id="-mIu3kfPHVClgdqaARXv-26" value="" style="whiteSpace=wrap;html=1;rounded=1;labelBackgroundColor=#ffffff;strokeColor=#d79b00;strokeWidth=2;fillColor=none;align=center;perimeterSpacing=0;" vertex="1" parent="-mIu3kfPHVClgdqaARXv-24">
          <mxGeometry x="1" width="15" height="15" as="geometry" />
        </mxCell>
        <mxCell id="-mIu3kfPHVClgdqaARXv-27" value="" style="whiteSpace=wrap;html=1;rounded=1;labelBackgroundColor=#ffffff;strokeColor=none;strokeWidth=2;fillColor=#D79B00;gradientColor=none;fontColor=#D79B00;align=center;" vertex="1" parent="-mIu3kfPHVClgdqaARXv-24">
          <mxGeometry y="3" width="30" height="10" as="geometry" />
        </mxCell>
        <mxCell id="-mIu3kfPHVClgdqaARXv-28" value="&lt;div&gt;&lt;b&gt;/var/simp/&lt;/b&gt;&lt;/div&gt;&lt;div&gt;&amp;nbsp; environments/&lt;/div&gt;&lt;font color=&quot;#b85450&quot;&gt;&amp;nbsp; &amp;nbsp; &lt;b&gt;development&lt;/b&gt;/&lt;br&gt;&lt;/font&gt;&lt;font color=&quot;#6c8ebf&quot;&gt;&amp;nbsp; &amp;nbsp; &amp;nbsp; &lt;b&gt;FakeCA&lt;/b&gt;/&lt;br&gt;&amp;nbsp; &amp;nbsp; &amp;nbsp; rsync/&lt;br&gt;&lt;/font&gt;&lt;div&gt;&lt;font color=&quot;#6c8ebf&quot;&gt;&amp;nbsp; &amp;nbsp; &amp;nbsp; site_files/&lt;br&gt;&lt;/font&gt;&lt;/div&gt;&lt;div&gt;&lt;font color=&quot;#6c8ebf&quot;&gt;&amp;nbsp;&amp;nbsp;&amp;nbsp;&amp;nbsp;&amp;nbsp;&amp;nbsp;&amp;nbsp; &lt;b&gt;pki_files&lt;/b&gt;/&lt;/font&gt;&lt;br&gt;&lt;/div&gt;" style="text;html=1;resizable=1;points=[];autosize=1;align=left;verticalAlign=top;spacingTop=-4;fontColor=#000000;fontFamily=Courier New;movable=1;rotatable=1;deletable=1;editable=1;connectable=1;" vertex="1" parent="-mIu3kfPHVClgdqaARXv-12">
          <mxGeometry x="324" y="377" width="150" height="110" as="geometry" />
        </mxCell>
        <mxCell id="-mIu3kfPHVClgdqaARXv-34" value="&lt;div&gt;&lt;b&gt;/opt/puppetlabs/&lt;/b&gt;server/&lt;/div&gt;&lt;div&gt;&amp;nbsp; data/puppetserver&lt;b&gt;/simp/&lt;/b&gt;&lt;/div&gt;&lt;div&gt;&amp;nbsp;&amp;nbsp;&amp;nbsp; environments/&lt;/div&gt;&lt;div&gt;&lt;font color=&quot;#b85450&quot;&gt;&lt;b&gt;&amp;nbsp;&amp;nbsp;&amp;nbsp;&amp;nbsp;&amp;nbsp; development&lt;/b&gt;/&lt;/font&gt;&lt;/div&gt;&lt;font color=&quot;#6c8ebf&quot;&gt;&amp;nbsp;&amp;nbsp; &amp;nbsp;&amp;nbsp;&amp;nbsp;&amp;nbsp; simp_autofiles/&lt;br&gt;&amp;nbsp; &amp;nbsp; &amp;nbsp; &amp;nbsp;&amp;nbsp;&amp;nbsp; ssh_autokeys/&lt;br&gt;&amp;nbsp; &amp;nbsp; &amp;nbsp; &amp;nbsp; &amp;nbsp; &lt;b&gt;gen_passwd&lt;/b&gt;/&lt;br&gt;&lt;/font&gt;" style="text;html=1;resizable=1;points=[];autosize=1;align=left;verticalAlign=top;spacingTop=-4;fontColor=#000000;fontFamily=Courier New;movable=1;rotatable=1;deletable=1;editable=1;connectable=1;" vertex="1" parent="-mIu3kfPHVClgdqaARXv-12">
          <mxGeometry x="524" y="377" width="200" height="110" as="geometry" />
        </mxCell>
        <mxCell id="-mIu3kfPHVClgdqaARXv-45" value="&lt;font style=&quot;font-size: 14px;&quot;&gt;Puppet&lt;br&gt;&lt;/font&gt;" style="text;html=1;align=center;verticalAlign=middle;resizable=0;points=[];autosize=1;strokeColor=none;fillColor=none;fontStyle=1;fontSize=14;fontColor=#5F7DA8;" vertex="1" parent="-mIu3kfPHVClgdqaARXv-12">
          <mxGeometry x="119" y="341" width="70" height="30" as="geometry" />
        </mxCell>
        <mxCell id="-mIu3kfPHVClgdqaARXv-46" value="Secondary " style="text;html=1;align=center;verticalAlign=middle;resizable=0;points=[];autosize=1;strokeColor=none;fillColor=none;fontStyle=1;fontColor=#946B00;fontSize=14;" vertex="1" parent="-mIu3kfPHVClgdqaARXv-12">
          <mxGeometry x="342" y="341" width="100" height="30" as="geometry" />
        </mxCell>
        <mxCell id="-mIu3kfPHVClgdqaARXv-47" value="Writable " style="text;html=1;align=center;verticalAlign=middle;resizable=0;points=[];autosize=1;strokeColor=none;fillColor=none;fontStyle=1;fontColor=#823B39;fontSize=14;" vertex="1" parent="-mIu3kfPHVClgdqaARXv-12">
          <mxGeometry x="570" y="341" width="80" height="30" as="geometry" />
        </mxCell>
        <mxCell id="uFsJ2Q3TE8NYGcYe8jEq-1" value="+" style="text;html=1;resizable=0;autosize=1;align=center;verticalAlign=middle;points=[];fillColor=none;strokeColor=none;rounded=0;fontFamily=Helvetica;fontColor=#D79B00;fontStyle=1;fontSize=19;" vertex="1" parent="-mIu3kfPHVClgdqaARXv-12">
          <mxGeometry x="473" y="400" width="20" height="20" as="geometry" />
        </mxCell>
        <mxCell id="uFsJ2Q3TE8NYGcYe8jEq-2" value="&quot;Extra&quot; Environment" style="text;html=1;align=center;verticalAlign=middle;resizable=0;points=[];autosize=1;strokeColor=none;fillColor=none;fontStyle=1;fontColor=#5B7D47;fontSize=14;" vertex="1" parent="-mIu3kfPHVClgdqaARXv-12">
          <mxGeometry x="430" y="300" width="170" height="30" as="geometry" />
        </mxCell>
        <mxCell id="uFsJ2Q3TE8NYGcYe8jEq-6" value="&quot;Omni&quot; Environment" style="text;html=1;align=center;verticalAlign=middle;resizable=0;points=[];autosize=1;strokeColor=none;fillColor=none;fontStyle=1;fontColor=#666666;fontSize=14;" vertex="1" parent="-mIu3kfPHVClgdqaARXv-12">
          <mxGeometry x="295" y="262" width="170" height="30" as="geometry" />
        </mxCell>
        <mxCell id="uFsJ2Q3TE8NYGcYe8jEq-7" value="+" style="text;html=1;resizable=0;autosize=1;align=center;verticalAlign=middle;points=[];fillColor=none;strokeColor=none;rounded=0;fontFamily=Helvetica;fontColor=#D79B00;fontStyle=1;fontSize=19;" vertex="1" parent="-mIu3kfPHVClgdqaARXv-12">
          <mxGeometry x="259" y="400" width="20" height="20" as="geometry" />
        </mxCell>
        <mxCell id="vvE6RJOm1xn6MpsW2v5u-0" value="+" style="text;html=1;resizable=0;autosize=1;align=center;verticalAlign=middle;points=[];fillColor=none;strokeColor=none;rounded=0;fontFamily=Helvetica;fontColor=#82B366;fontStyle=1;fontSize=19;" vertex="1" parent="-mIu3kfPHVClgdqaARXv-12">
          <mxGeometry x="370" y="86" width="20" height="20" as="geometry" />
        </mxCell>
        <mxCell id="vvE6RJOm1xn6MpsW2v5u-1" value="" style="shape=curlyBracket;whiteSpace=wrap;html=1;rounded=1;labelBackgroundColor=#ffffff;strokeColor=#82b366;strokeWidth=2;fillColor=#d5e8d4;align=center;" vertex="1" parent="-mIu3kfPHVClgdqaARXv-12">
          <mxGeometry x="276" y="40" width="70" height="164" as="geometry" />
        </mxCell>
        <mxCell id="vvE6RJOm1xn6MpsW2v5u-2" value="&lt;div&gt;&lt;font size=&quot;1&quot;&gt;&lt;span style=&quot;font-weight: normal;&quot;&gt;SIMP&lt;/span&gt;&lt;/font&gt;&lt;/div&gt;&lt;div&gt;Secondary&lt;/div&gt;" style="shape=note;whiteSpace=wrap;html=1;size=14;verticalAlign=middle;align=center;spacingTop=-6;fontFamily=Helvetica;fontStyle=1;fillColor=#fff2cc;strokeColor=#d6b656;" vertex="1" parent="-mIu3kfPHVClgdqaARXv-12">
          <mxGeometry x="329.5" y="105" width="106" height="34" as="geometry" />
        </mxCell>
        <mxCell id="vvE6RJOm1xn6MpsW2v5u-3" value="Puppet" style="shape=note;whiteSpace=wrap;html=1;size=14;verticalAlign=middle;align=center;spacingTop=-6;fontFamily=Helvetica;fontStyle=1;fillColor=#dae8fc;strokeColor=#6c8ebf;" vertex="1" parent="-mIu3kfPHVClgdqaARXv-12">
          <mxGeometry x="329.5" y="52" width="106" height="34" as="geometry" />
        </mxCell>
        <mxCell id="vvE6RJOm1xn6MpsW2v5u-4" value="&lt;font style=&quot;font-size: 11px;&quot;&gt;&lt;span style=&quot;font-weight: normal;&quot;&gt;SIMP&lt;/span&gt;&lt;/font&gt;&lt;br&gt;&quot;Omni&quot;&lt;br&gt;environment" style="shape=note;whiteSpace=wrap;html=1;size=14;verticalAlign=top;align=center;spacingTop=-6;fontFamily=Helvetica;fontStyle=1;fillColor=#d5e8d4;strokeColor=#82b366;" vertex="1" parent="-mIu3kfPHVClgdqaARXv-12">
          <mxGeometry x="199" y="96" width="87" height="51" as="geometry" />
        </mxCell>
        <mxCell id="vvE6RJOm1xn6MpsW2v5u-5" value="+" style="text;html=1;resizable=0;autosize=1;align=center;verticalAlign=middle;points=[];fillColor=none;strokeColor=none;rounded=0;fontFamily=Helvetica;fontColor=#82B366;fontStyle=1;fontSize=19;" vertex="1" parent="-mIu3kfPHVClgdqaARXv-12">
          <mxGeometry x="370" y="139" width="20" height="20" as="geometry" />
        </mxCell>
        <mxCell id="vvE6RJOm1xn6MpsW2v5u-6" value="&lt;div style=&quot;font-size: 10px;&quot;&gt;&lt;span style=&quot;font-weight: normal;&quot;&gt;SIMP &lt;br&gt;&lt;/span&gt;&lt;/div&gt;&lt;div&gt;Writable&lt;/div&gt;" style="shape=note;whiteSpace=wrap;html=1;size=14;verticalAlign=middle;align=center;spacingTop=-6;fontFamily=Helvetica;fontStyle=1;fillColor=#f8cecc;strokeColor=#b85450;" vertex="1" parent="-mIu3kfPHVClgdqaARXv-12">
          <mxGeometry x="329.5" y="158" width="106" height="34" as="geometry" />
        </mxCell>
        <mxCell id="vvE6RJOm1xn6MpsW2v5u-7" value="" style="shape=curlyBracket;whiteSpace=wrap;html=1;rounded=1;labelBackgroundColor=#ffffff;strokeColor=#82b366;strokeWidth=2;fillColor=#d5e8d4;align=center;flipH=1;fontStyle=1;dashed=1;dashPattern=1 1;" vertex="1" parent="-mIu3kfPHVClgdqaARXv-12">
          <mxGeometry x="416" y="97" width="70" height="104" as="geometry" />
        </mxCell>
        <mxCell id="vvE6RJOm1xn6MpsW2v5u-8" style="edgeStyle=orthogonalEdgeStyle;rounded=0;orthogonalLoop=1;jettySize=auto;html=1;exitX=0.5;exitY=1;exitDx=0;exitDy=0;fontFamily=Courier New;" edge="1" parent="-mIu3kfPHVClgdqaARXv-12">
          <mxGeometry relative="1" as="geometry">
            <mxPoint x="516" y="159" as="sourcePoint" />
            <mxPoint x="516" y="159" as="targetPoint" />
          </mxGeometry>
        </mxCell>
        <mxCell id="vvE6RJOm1xn6MpsW2v5u-9" value="&lt;font style=&quot;font-size: 11px;&quot;&gt;&lt;span style=&quot;font-weight: normal;&quot;&gt;SIMP&lt;/span&gt;&lt;/font&gt;&lt;br&gt;&quot;Extra&quot;&lt;br&gt;environment" style="shape=note;whiteSpace=wrap;html=1;size=14;verticalAlign=top;align=center;spacingTop=-6;fontFamily=Helvetica;fontStyle=1;fillColor=#d5e8d4;strokeColor=#82b366;" vertex="1" parent="-mIu3kfPHVClgdqaARXv-12">
          <mxGeometry x="473" y="123" width="93" height="50" as="geometry" />
        </mxCell>
        <mxCell id="vvE6RJOm1xn6MpsW2v5u-11" value="" style="group" vertex="1" connectable="0" parent="-mIu3kfPHVClgdqaARXv-12">
          <mxGeometry x="490" y="334" width="30" height="23" as="geometry" />
        </mxCell>
        <mxCell id="-mIu3kfPHVClgdqaARXv-31" value="" style="whiteSpace=wrap;html=1;rounded=0;labelBackgroundColor=#ffffff;strokeColor=none;strokeWidth=2;fillColor=#B85450;gradientColor=none;fontColor=#D79B00;align=center;" vertex="1" parent="vvE6RJOm1xn6MpsW2v5u-11">
          <mxGeometry y="12" width="30" height="11" as="geometry" />
        </mxCell>
        <mxCell id="-mIu3kfPHVClgdqaARXv-32" value="" style="whiteSpace=wrap;html=1;rounded=1;labelBackgroundColor=#ffffff;strokeColor=#B85450;strokeWidth=2;fillColor=none;align=center;perimeterSpacing=0;" vertex="1" parent="vvE6RJOm1xn6MpsW2v5u-11">
          <mxGeometry x="1" width="15" height="15" as="geometry" />
        </mxCell>
        <mxCell id="-mIu3kfPHVClgdqaARXv-33" value="" style="whiteSpace=wrap;html=1;rounded=1;labelBackgroundColor=#ffffff;strokeColor=none;strokeWidth=2;fillColor=#B85450;gradientColor=none;fontColor=#D79B00;align=center;" vertex="1" parent="vvE6RJOm1xn6MpsW2v5u-11">
          <mxGeometry y="3" width="30" height="10" as="geometry" />
        </mxCell>
        <mxCell id="vvE6RJOm1xn6MpsW2v5u-12" value="" style="group" vertex="1" connectable="0" parent="-mIu3kfPHVClgdqaARXv-12">
          <mxGeometry x="42" y="334" width="30" height="23" as="geometry" />
        </mxCell>
        <mxCell id="-mIu3kfPHVClgdqaARXv-19" value="" style="whiteSpace=wrap;html=1;rounded=0;labelBackgroundColor=#ffffff;strokeColor=none;strokeWidth=2;fillColor=#5F7DA8;gradientColor=none;fontColor=#D79B00;align=center;container=0;" vertex="1" parent="vvE6RJOm1xn6MpsW2v5u-12">
          <mxGeometry y="12" width="30" height="11" as="geometry" />
        </mxCell>
        <mxCell id="-mIu3kfPHVClgdqaARXv-20" value="" style="whiteSpace=wrap;html=1;rounded=1;labelBackgroundColor=#ffffff;strokeColor=#5F7DA8;strokeWidth=2;fillColor=none;align=center;perimeterSpacing=0;container=0;" vertex="1" parent="vvE6RJOm1xn6MpsW2v5u-12">
          <mxGeometry x="1" width="15" height="15" as="geometry" />
        </mxCell>
        <mxCell id="-mIu3kfPHVClgdqaARXv-21" value="" style="whiteSpace=wrap;html=1;rounded=1;labelBackgroundColor=#ffffff;strokeColor=none;strokeWidth=2;fillColor=#5F7DA8;gradientColor=none;fontColor=#D79B00;align=center;container=0;" vertex="1" parent="vvE6RJOm1xn6MpsW2v5u-12">
          <mxGeometry y="3" width="30" height="10" as="geometry" />
        </mxCell>
      </root>
    </mxGraphModel>
  </diagram>
  <diagram id="h--fzdkQ0jzI6pCZrXBm" name="simp-doc 6.4.0">
    <mxGraphModel dx="1422" dy="813" grid="1" gridSize="10" guides="1" tooltips="1" connect="1" arrows="1" fold="1" page="1" pageScale="1" pageWidth="850" pageHeight="1100" math="0" shadow="0">
      <root>
        <mxCell id="0" />
        <mxCell id="1" parent="0" />
        <mxCell id="2" value="" style="group" parent="1" vertex="1" connectable="0">
          <mxGeometry x="130" y="141" width="436" height="354" as="geometry" />
        </mxCell>
        <mxCell id="3" value="" style="group" parent="2" vertex="1" connectable="0">
          <mxGeometry width="436" height="354" as="geometry" />
        </mxCell>
        <mxCell id="4" value="" style="whiteSpace=wrap;html=1;dashed=1;dashPattern=1 1;labelBackgroundColor=#ffffff;strokeColor=none;strokeWidth=2;fillColor=#F7F4ED;fontColor=#333333;align=center;rounded=1;movable=1;resizable=1;rotatable=1;deletable=1;editable=1;connectable=1;fontStyle=0" parent="3" vertex="1">
          <mxGeometry x="90" y="209" width="75" height="45" as="geometry" />
        </mxCell>
        <mxCell id="5" value="" style="whiteSpace=wrap;html=1;dashed=1;dashPattern=1 1;labelBackgroundColor=#ffffff;strokeColor=none;strokeWidth=2;fillColor=#F7F4ED;fontColor=#333333;align=center;rounded=1;fontStyle=0" parent="3" vertex="1">
          <mxGeometry x="171" y="173" width="97" height="53" as="geometry" />
        </mxCell>
        <mxCell id="6" value="" style="whiteSpace=wrap;html=1;dashed=1;dashPattern=1 1;labelBackgroundColor=#ffffff;strokeColor=none;strokeWidth=2;fillColor=#F7F4ED;fontColor=#333333;align=center;rounded=1;fontStyle=1" parent="3" vertex="1">
          <mxGeometry x="28" y="202" width="92" height="19" as="geometry" />
        </mxCell>
        <mxCell id="7" value="" style="whiteSpace=wrap;html=1;dashed=1;dashPattern=1 1;labelBackgroundColor=#ffffff;strokeColor=none;strokeWidth=2;fillColor=#F7F4ED;fontColor=#333333;align=center;rounded=1;fontStyle=1" parent="3" vertex="1">
          <mxGeometry x="119" y="158" width="101" height="21" as="geometry" />
        </mxCell>
        <mxCell id="8" value="" style="whiteSpace=wrap;html=1;dashed=1;dashPattern=1 1;labelBackgroundColor=#ffffff;strokeColor=none;strokeWidth=2;fillColor=#F7F4ED;fontColor=#333333;align=center;rounded=1;movable=1;resizable=1;rotatable=1;deletable=1;editable=1;connectable=1;fontStyle=0" parent="3" vertex="1">
          <mxGeometry y="118" width="153" height="48" as="geometry" />
        </mxCell>
        <mxCell id="9" value="" style="whiteSpace=wrap;html=1;dashed=1;dashPattern=1 1;labelBackgroundColor=#ffffff;strokeColor=none;strokeWidth=2;fillColor=#F7F4ED;fontColor=#333333;align=center;rounded=1;movable=1;resizable=1;rotatable=1;deletable=1;editable=1;connectable=1;fontStyle=0" parent="3" vertex="1">
          <mxGeometry x="11" y="185" width="59" height="28" as="geometry" />
        </mxCell>
        <mxCell id="10" value="" style="whiteSpace=wrap;html=1;dashed=1;dashPattern=1 1;labelBackgroundColor=#ffffff;strokeColor=none;strokeWidth=2;fillColor=#F7F4ED;fontColor=#333333;align=center;rounded=1;movable=1;resizable=1;rotatable=1;deletable=1;editable=1;connectable=1;fontStyle=0" parent="3" vertex="1">
          <mxGeometry x="270" y="300" width="166" height="54" as="geometry" />
        </mxCell>
        <mxCell id="11" value="" style="whiteSpace=wrap;html=1;dashed=1;dashPattern=1 1;labelBackgroundColor=#ffffff;strokeColor=none;strokeWidth=2;fillColor=#F7F4ED;fontColor=#333333;align=center;rounded=1;movable=1;resizable=1;rotatable=1;deletable=1;editable=1;connectable=1;fontStyle=0" parent="3" vertex="1">
          <mxGeometry x="220" y="265" width="101" height="28" as="geometry" />
        </mxCell>
        <mxCell id="12" value="" style="whiteSpace=wrap;html=1;dashed=1;dashPattern=1 1;labelBackgroundColor=#ffffff;strokeColor=none;strokeWidth=2;fillColor=#F7F4ED;fontColor=#333333;align=center;rounded=1;movable=1;resizable=1;rotatable=1;deletable=1;editable=1;connectable=1;fontStyle=0" parent="3" vertex="1">
          <mxGeometry x="132" y="245" width="119" height="28" as="geometry" />
        </mxCell>
        <mxCell id="13" value="" style="whiteSpace=wrap;html=1;dashed=1;dashPattern=1 1;labelBackgroundColor=#ffffff;strokeColor=none;strokeWidth=2;fillColor=#F7F4ED;fontColor=#333333;align=center;rounded=1;movable=1;resizable=1;rotatable=1;deletable=1;editable=1;connectable=1;" parent="3" vertex="1">
          <mxGeometry width="210" height="59" as="geometry" />
        </mxCell>
        <mxCell id="14" value="" style="whiteSpace=wrap;html=1;dashed=1;dashPattern=1 1;labelBackgroundColor=#ffffff;strokeColor=none;strokeWidth=2;fillColor=#F7F4ED;fontColor=#333333;align=center;rounded=1;" parent="3" vertex="1">
          <mxGeometry x="159" y="50" width="191" height="84" as="geometry" />
        </mxCell>
        <mxCell id="15" value="" style="whiteSpace=wrap;html=1;dashed=1;dashPattern=1 1;labelBackgroundColor=#ffffff;strokeColor=none;strokeWidth=2;fillColor=#F7F4ED;fontColor=#333333;align=center;rounded=1;fontStyle=1" parent="2" vertex="1">
          <mxGeometry x="201" y="258" width="59" height="21" as="geometry" />
        </mxCell>
        <mxCell id="16" value="" style="whiteSpace=wrap;html=1;dashed=1;dashPattern=1 1;labelBackgroundColor=#ffffff;strokeColor=none;strokeWidth=2;fillColor=#F7F4ED;fontColor=#333333;align=center;rounded=1;movable=1;resizable=1;rotatable=1;deletable=1;editable=1;connectable=1;fontStyle=0" parent="1" vertex="1">
          <mxGeometry x="390" y="423" width="101" height="28" as="geometry" />
        </mxCell>
        <mxCell id="17" value="" style="edgeStyle=orthogonalEdgeStyle;rounded=0;orthogonalLoop=1;jettySize=auto;html=1;strokeColor=#6C8EBF;fontFamily=Helvetica;fontColor=#3333FF;align=center;movable=1;resizable=1;rotatable=1;deletable=1;editable=1;connectable=1;endArrow=none;endFill=0;" parent="1" edge="1">
          <mxGeometry y="-5" relative="1" as="geometry">
            <mxPoint x="502" y="489" as="sourcePoint" />
            <mxPoint x="503" y="516" as="targetPoint" />
            <mxPoint x="4" y="-5" as="offset" />
          </mxGeometry>
        </mxCell>
        <mxCell id="18" value="" style="whiteSpace=wrap;html=1;fontFamily=Helvetica;fontColor=#3333FF;align=left;rounded=1;fillColor=none;strokeColor=#6C8EBF;dashed=1;" parent="1" vertex="1">
          <mxGeometry x="409" y="443" width="151" height="46" as="geometry" />
        </mxCell>
        <mxCell id="19" value="/opt/&lt;br&gt;&amp;nbsp; puppetlabs/&lt;br&gt;&amp;nbsp; &amp;nbsp; &amp;nbsp; &amp;nbsp; &amp;nbsp; server/&lt;br&gt;&amp;nbsp; &amp;nbsp; &amp;nbsp; &amp;nbsp; &amp;nbsp; &amp;nbsp; &amp;nbsp; data/&lt;br&gt;&amp;nbsp; &amp;nbsp; &amp;nbsp; &amp;nbsp; &amp;nbsp; &amp;nbsp; &amp;nbsp; &amp;nbsp; puppetserver/&lt;br&gt;&amp;nbsp; &amp;nbsp; &amp;nbsp; &amp;nbsp; &amp;nbsp; &amp;nbsp; &amp;nbsp; &amp;nbsp; &amp;nbsp; &amp;nbsp; &amp;nbsp; &amp;nbsp; &amp;nbsp; simp/&lt;br&gt;&amp;nbsp; &amp;nbsp; &amp;nbsp; &amp;nbsp; &amp;nbsp; &amp;nbsp; &amp;nbsp; &amp;nbsp; &amp;nbsp; &amp;nbsp; &amp;nbsp; &amp;nbsp; &amp;nbsp; &amp;nbsp; environments/&lt;br&gt;&lt;font color=&quot;#b85450&quot;&gt;&amp;nbsp; &amp;nbsp; &amp;nbsp; &amp;nbsp; &amp;nbsp; &amp;nbsp; &amp;nbsp; &amp;nbsp; &amp;nbsp; &amp;nbsp; &amp;nbsp; &amp;nbsp; &amp;nbsp; &amp;nbsp; &amp;nbsp; &amp;nbsp; &amp;nbsp; &lt;b&gt;development&lt;/b&gt;/&lt;br&gt;&lt;/font&gt;&lt;font color=&quot;#6c8ebf&quot;&gt;&amp;nbsp; &amp;nbsp; &amp;nbsp; &amp;nbsp; &amp;nbsp; &amp;nbsp; &amp;nbsp; &amp;nbsp; &amp;nbsp; &amp;nbsp; &amp;nbsp; &amp;nbsp; &amp;nbsp; &amp;nbsp; &amp;nbsp; &amp;nbsp; &amp;nbsp; &amp;nbsp; simp_autofiles/&lt;br&gt;&amp;nbsp; &amp;nbsp; &amp;nbsp; &amp;nbsp; &amp;nbsp; &amp;nbsp; &amp;nbsp; &amp;nbsp; &amp;nbsp; &amp;nbsp; &amp;nbsp; &amp;nbsp; &amp;nbsp; &amp;nbsp; &amp;nbsp; &amp;nbsp; &amp;nbsp; &amp;nbsp; &amp;nbsp; &amp;nbsp; &amp;nbsp; &amp;nbsp;ssh_autokeys/&lt;br&gt;&amp;nbsp; &amp;nbsp; &amp;nbsp; &amp;nbsp; &amp;nbsp; &amp;nbsp; &amp;nbsp; &amp;nbsp; &amp;nbsp; &amp;nbsp; &amp;nbsp; &amp;nbsp; &amp;nbsp; &amp;nbsp; &amp;nbsp; &amp;nbsp; &amp;nbsp; &amp;nbsp; &amp;nbsp; &amp;nbsp; &amp;nbsp; &amp;nbsp;gen_passwd/&lt;br&gt;&lt;/font&gt;&lt;br&gt;" style="text;html=1;resizable=0;points=[];autosize=1;align=left;verticalAlign=top;spacingTop=-4;fontColor=#000000;fontFamily=Courier New;movable=0;rotatable=0;deletable=0;editable=0;connectable=0;" parent="1" vertex="1">
          <mxGeometry x="150" y="329" width="420" height="170" as="geometry" />
        </mxCell>
        <mxCell id="20" value="/var/&lt;br&gt;&amp;nbsp; simp/&lt;br&gt;&amp;nbsp; &amp;nbsp; environments/&lt;br&gt;&lt;font color=&quot;#b85450&quot;&gt;&amp;nbsp; &amp;nbsp; &amp;nbsp; &amp;nbsp; &amp;nbsp; &amp;nbsp; &amp;nbsp; &lt;b&gt;development&lt;/b&gt;/&lt;br&gt;&lt;/font&gt;&lt;font color=&quot;#6c8ebf&quot;&gt;&amp;nbsp; &amp;nbsp; &amp;nbsp; &amp;nbsp; &amp;nbsp; &amp;nbsp; &amp;nbsp; &amp;nbsp; &amp;nbsp; &amp;nbsp; &amp;nbsp; FakeCA/&lt;br&gt;&amp;nbsp; &amp;nbsp; &amp;nbsp; &amp;nbsp; &amp;nbsp; &amp;nbsp; &amp;nbsp; &amp;nbsp; &amp;nbsp; &amp;nbsp; &amp;nbsp; rsync/&lt;br&gt;&amp;nbsp; &amp;nbsp; &amp;nbsp; &amp;nbsp; &amp;nbsp; &amp;nbsp; &amp;nbsp; &amp;nbsp; &amp;nbsp; &amp;nbsp; &amp;nbsp; site_files/&lt;br&gt;&lt;/font&gt;&lt;br&gt;" style="text;html=1;resizable=0;points=[];autosize=1;align=left;verticalAlign=top;spacingTop=-4;fontColor=#000000;fontFamily=Courier New;movable=0;rotatable=0;deletable=0;editable=0;connectable=0;" parent="1" vertex="1">
          <mxGeometry x="150" y="259" width="250" height="110" as="geometry" />
        </mxCell>
        <mxCell id="21" value="" style="whiteSpace=wrap;html=1;fontFamily=Helvetica;align=center;rounded=1;fillColor=none;strokeColor=#6c8ebf;dashed=1;movable=1;resizable=1;rotatable=1;deletable=1;editable=1;connectable=1;" parent="1" vertex="1">
          <mxGeometry x="347" y="210" width="129" height="60" as="geometry" />
        </mxCell>
        <mxCell id="22" value="" style="whiteSpace=wrap;html=1;fontFamily=Helvetica;fontColor=#3333FF;align=left;rounded=1;fillColor=none;strokeColor=#6C8EBF;dashed=1;movable=0;resizable=0;rotatable=0;deletable=0;editable=0;connectable=0;" parent="1" vertex="1">
          <mxGeometry x="305" y="317" width="89" height="45" as="geometry" />
        </mxCell>
        <mxCell id="23" value="/etc/&lt;br&gt;&amp;nbsp; puppetlabs/&lt;br&gt;&amp;nbsp; &amp;nbsp; &amp;nbsp; &amp;nbsp; &amp;nbsp; code/&lt;br&gt;&amp;nbsp; &amp;nbsp; &amp;nbsp; &amp;nbsp; &amp;nbsp; &amp;nbsp; environments/&lt;br&gt;&lt;font color=&quot;#b85450&quot;&gt;&amp;nbsp; &amp;nbsp; &amp;nbsp; &amp;nbsp; &amp;nbsp; &amp;nbsp; &amp;nbsp; &amp;nbsp; &amp;nbsp; &amp;nbsp;&amp;nbsp;&lt;b&gt;development&lt;/b&gt;/&lt;br&gt;&lt;/font&gt;&lt;font color=&quot;#3333ff&quot;&gt;&amp;nbsp; &amp;nbsp; &amp;nbsp; &amp;nbsp; &amp;nbsp; &amp;nbsp; &amp;nbsp; &amp;nbsp; &amp;nbsp; &amp;nbsp; &amp;nbsp; &amp;nbsp; &amp;nbsp; &amp;nbsp; &lt;/font&gt;&lt;font color=&quot;#6c8ebf&quot;&gt;data/&lt;br&gt;&lt;span&gt;&amp;nbsp; &amp;nbsp; &amp;nbsp; &amp;nbsp; &amp;nbsp; &amp;nbsp; &amp;nbsp; &amp;nbsp; &amp;nbsp; &amp;nbsp; &amp;nbsp; &amp;nbsp; &amp;nbsp; &amp;nbsp; manifests/&lt;br&gt;&lt;/span&gt;&amp;nbsp; &amp;nbsp; &amp;nbsp; &amp;nbsp; &amp;nbsp; &amp;nbsp; &amp;nbsp; &amp;nbsp; &amp;nbsp; &amp;nbsp; &amp;nbsp; &amp;nbsp; &amp;nbsp; &amp;nbsp; modules/*/&lt;br&gt;&amp;nbsp; &amp;nbsp; &amp;nbsp; &amp;nbsp; &amp;nbsp; &amp;nbsp; &amp;nbsp; &amp;nbsp; &amp;nbsp; &amp;nbsp; &amp;nbsp; &amp;nbsp; &amp;nbsp; &amp;nbsp; environment.conf&lt;/font&gt;&lt;br&gt;" style="text;html=1;resizable=0;points=[];autosize=1;align=left;verticalAlign=top;spacingTop=-4;fontColor=#000000;fontFamily=Courier New;movable=0;rotatable=0;deletable=0;editable=0;connectable=0;" parent="1" vertex="1">
          <mxGeometry x="150" y="139" width="330" height="120" as="geometry" />
        </mxCell>
        <mxCell id="24" value="" style="whiteSpace=wrap;html=1;fontFamily=Helvetica;align=center;rounded=1;fillColor=none;strokeColor=#d79b00;dashed=1;movable=1;resizable=1;rotatable=1;deletable=1;editable=1;connectable=1;" parent="1" vertex="1">
          <mxGeometry x="10" y="190" width="80" height="130" as="geometry" />
        </mxCell>
        <mxCell id="25" style="edgeStyle=orthogonalEdgeStyle;rounded=0;orthogonalLoop=1;jettySize=auto;html=1;fontFamily=Lucida Console;fontColor=#FF0000;strokeColor=#B85450;endArrow=none;endFill=0;" parent="1" source="55" edge="1">
          <mxGeometry relative="1" as="geometry">
            <mxPoint x="456.0344827586207" y="320.0689655172414" as="sourcePoint" />
            <mxPoint x="490" y="434" as="targetPoint" />
            <Array as="points">
              <mxPoint x="622" y="434" />
            </Array>
          </mxGeometry>
        </mxCell>
        <mxCell id="26" style="edgeStyle=orthogonalEdgeStyle;rounded=0;orthogonalLoop=1;jettySize=auto;html=1;exitX=0.5;exitY=1;exitDx=0;exitDy=0;exitPerimeter=0;entryX=0.62;entryY=0;entryDx=0;entryDy=0;entryPerimeter=0;fontFamily=Lucida Console;fontColor=#FF0000;strokeColor=#B85450;endArrow=none;endFill=0;" parent="1" source="27" edge="1">
          <mxGeometry relative="1" as="geometry">
            <mxPoint x="355" y="199" as="targetPoint" />
          </mxGeometry>
        </mxCell>
        <mxCell id="27" value="Puppet&lt;br&gt;environment&lt;br&gt;directory&lt;br&gt;" style="shape=note;whiteSpace=wrap;html=1;size=14;verticalAlign=top;align=center;spacingTop=-6;fontFamily=Helvetica;fontStyle=1;fillColor=#DAE8FC;strokeColor=#b85450;" parent="1" vertex="1">
          <mxGeometry x="295" y="120" width="100" height="44" as="geometry" />
        </mxCell>
        <mxCell id="28" value="" style="edgeStyle=orthogonalEdgeStyle;rounded=0;orthogonalLoop=1;jettySize=auto;html=1;strokeColor=#6C8EBF;fontFamily=Helvetica;fontColor=#3333FF;align=center;endArrow=none;endFill=0;" parent="1" edge="1">
          <mxGeometry relative="1" as="geometry">
            <mxPoint x="459" y="163" as="sourcePoint" />
            <mxPoint x="459" y="211" as="targetPoint" />
            <Array as="points">
              <mxPoint x="459" y="173" />
              <mxPoint x="459" y="173" />
            </Array>
          </mxGeometry>
        </mxCell>
        <mxCell id="29" value="Puppet&lt;br&gt;environment&lt;br&gt;&lt;span style=&quot;font-weight: normal&quot;&gt;&lt;font style=&quot;font-size: 10px&quot;&gt;&lt;i&gt;(assets)&lt;/i&gt;&lt;/font&gt;&lt;/span&gt;&lt;br&gt;" style="shape=note;whiteSpace=wrap;html=1;size=14;verticalAlign=top;align=center;spacingTop=-6;fontFamily=Helvetica;fontStyle=1;fillColor=#dae8fc;strokeColor=#6c8ebf;" parent="1" vertex="1">
          <mxGeometry x="401" y="120" width="106" height="45" as="geometry" />
        </mxCell>
        <mxCell id="30" style="edgeStyle=orthogonalEdgeStyle;rounded=0;orthogonalLoop=1;jettySize=auto;html=1;fontFamily=Lucida Console;fontColor=#FF0000;strokeColor=#B85450;endArrow=none;endFill=0;" parent="1" source="53" edge="1">
          <mxGeometry relative="1" as="geometry">
            <mxPoint x="550" y="310" as="sourcePoint" />
            <mxPoint x="343" y="310" as="targetPoint" />
            <Array as="points">
              <mxPoint x="500" y="310" />
              <mxPoint x="500" y="310" />
            </Array>
          </mxGeometry>
        </mxCell>
        <mxCell id="31" value="" style="edgeStyle=orthogonalEdgeStyle;rounded=0;orthogonalLoop=1;jettySize=auto;html=1;strokeColor=#6C8EBF;fontFamily=Helvetica;fontColor=#3333FF;align=center;endArrow=none;endFill=0;" parent="1" source="56" edge="1">
          <mxGeometry relative="1" as="geometry">
            <mxPoint x="429" y="367" as="sourcePoint" />
            <mxPoint x="394" y="347" as="targetPoint" />
            <Array as="points">
              <mxPoint x="510" y="347" />
              <mxPoint x="510" y="347" />
            </Array>
          </mxGeometry>
        </mxCell>
        <mxCell id="32" style="edgeStyle=orthogonalEdgeStyle;rounded=0;orthogonalLoop=1;jettySize=auto;html=1;exitX=0.5;exitY=1;exitDx=0;exitDy=0;exitPerimeter=0;entryX=0.5;entryY=0;entryDx=0;entryDy=0;endArrow=none;endFill=0;strokeWidth=1;fontColor=#D79B00;fillColor=#ffe6cc;strokeColor=#d79b00;" parent="1" source="33" target="24" edge="1">
          <mxGeometry relative="1" as="geometry" />
        </mxCell>
        <mxCell id="33" value="&lt;div style=&quot;text-align: center&quot;&gt;&lt;span&gt;Infrastructure&lt;/span&gt;&lt;/div&gt;&lt;div style=&quot;text-align: center&quot;&gt;&lt;span&gt;environment&lt;/span&gt;&lt;/div&gt;" style="shape=note;whiteSpace=wrap;html=1;size=6;verticalAlign=top;align=center;spacingTop=-6;fontFamily=Helvetica;fontStyle=1;fillColor=#ffe6cc;strokeColor=#d79b00;" parent="1" vertex="1">
          <mxGeometry x="4" y="147" width="95" height="30" as="geometry" />
        </mxCell>
        <mxCell id="34" value="" style="shape=curlyBracket;whiteSpace=wrap;html=1;rounded=1;strokeColor=#d79b00;fillColor=#ffe6cc;fontFamily=Helvetica;align=center;rotation=0;size=0.7692307692307693;spacingTop=-7;spacing=3;" parent="1" vertex="1">
          <mxGeometry x="60" y="140" width="58" height="199" as="geometry" />
        </mxCell>
        <mxCell id="35" value="" style="edgeStyle=orthogonalEdgeStyle;rounded=0;orthogonalLoop=1;jettySize=auto;html=1;endArrow=none;endFill=0;strokeWidth=1;fillColor=#ffe6cc;strokeColor=#d79b00;" parent="1" source="36" edge="1">
          <mxGeometry relative="1" as="geometry">
            <mxPoint x="45" y="283" as="targetPoint" />
          </mxGeometry>
        </mxCell>
        <mxCell id="36" value="" style="shadow=0;dashed=0;html=1;strokeColor=#d79b00;labelPosition=center;verticalLabelPosition=bottom;verticalAlign=top;align=center;shape=mxgraph.azure.server;fillColor=#ffe6cc;labelBackgroundColor=#ffffff;" parent="1" vertex="1">
          <mxGeometry x="20" y="233" width="50" height="15" as="geometry" />
        </mxCell>
        <mxCell id="37" value="&lt;b&gt;production&lt;/b&gt;&lt;br&gt;&lt;div style=&quot;text-align: center&quot;&gt;&lt;span&gt;network&lt;/span&gt;&lt;/div&gt;" style="text;html=1;fontColor=#D79B00;" parent="1" vertex="1">
          <mxGeometry x="19" y="280" width="60" height="30" as="geometry" />
        </mxCell>
        <mxCell id="38" value="&lt;b&gt;production&lt;br&gt;&lt;/b&gt;&lt;div style=&quot;text-align: center&quot;&gt;&lt;span&gt;infrastructure&lt;/span&gt;&lt;/div&gt;" style="text;html=1;fontColor=#D79B00;align=center;" parent="1" vertex="1">
          <mxGeometry x="9" y="193" width="80" height="30" as="geometry" />
        </mxCell>
        <mxCell id="39" value="" style="endArrow=none;html=1;fillColor=#ffe6cc;strokeColor=#d79b00;strokeWidth=8;" parent="1" edge="1">
          <mxGeometry width="50" height="50" relative="1" as="geometry">
            <mxPoint x="15" y="279.5" as="sourcePoint" />
            <mxPoint x="80" y="279" as="targetPoint" />
          </mxGeometry>
        </mxCell>
        <mxCell id="40" value="" style="group" parent="1" vertex="1" connectable="0">
          <mxGeometry x="118" y="321" width="30" height="23" as="geometry" />
        </mxCell>
        <mxCell id="41" value="" style="whiteSpace=wrap;html=1;rounded=0;labelBackgroundColor=#ffffff;strokeColor=none;strokeWidth=2;fillColor=#D79B00;gradientColor=none;fontColor=#D79B00;align=center;" parent="40" vertex="1">
          <mxGeometry y="12" width="30" height="11" as="geometry" />
        </mxCell>
        <mxCell id="42" value="" style="whiteSpace=wrap;html=1;rounded=1;labelBackgroundColor=#ffffff;strokeColor=#d79b00;strokeWidth=2;fillColor=none;align=center;perimeterSpacing=0;" parent="40" vertex="1">
          <mxGeometry x="1" width="15" height="15" as="geometry" />
        </mxCell>
        <mxCell id="43" value="" style="whiteSpace=wrap;html=1;rounded=1;labelBackgroundColor=#ffffff;strokeColor=none;strokeWidth=2;fillColor=#D79B00;gradientColor=none;fontColor=#D79B00;align=center;" parent="40" vertex="1">
          <mxGeometry y="3" width="30" height="10" as="geometry" />
        </mxCell>
        <mxCell id="44" value="" style="group" parent="1" vertex="1" connectable="0">
          <mxGeometry x="118" y="252" width="30" height="23" as="geometry" />
        </mxCell>
        <mxCell id="45" value="" style="whiteSpace=wrap;html=1;rounded=0;labelBackgroundColor=#ffffff;strokeColor=none;strokeWidth=2;fillColor=#D79B00;gradientColor=none;fontColor=#D79B00;align=center;" parent="44" vertex="1">
          <mxGeometry y="12" width="30" height="11" as="geometry" />
        </mxCell>
        <mxCell id="46" value="" style="whiteSpace=wrap;html=1;rounded=1;labelBackgroundColor=#ffffff;strokeColor=#d79b00;strokeWidth=2;fillColor=none;align=center;perimeterSpacing=0;" parent="44" vertex="1">
          <mxGeometry x="1" width="15" height="15" as="geometry" />
        </mxCell>
        <mxCell id="47" value="" style="whiteSpace=wrap;html=1;rounded=1;labelBackgroundColor=#ffffff;strokeColor=none;strokeWidth=2;fillColor=#D79B00;gradientColor=none;fontColor=#D79B00;align=center;" parent="44" vertex="1">
          <mxGeometry y="3" width="30" height="10" as="geometry" />
        </mxCell>
        <mxCell id="48" value="" style="group" parent="1" vertex="1" connectable="0">
          <mxGeometry x="118" y="131" width="30" height="23" as="geometry" />
        </mxCell>
        <mxCell id="49" value="" style="whiteSpace=wrap;html=1;rounded=0;labelBackgroundColor=#ffffff;strokeColor=none;strokeWidth=2;fillColor=#D79B00;gradientColor=none;fontColor=#D79B00;align=center;" parent="48" vertex="1">
          <mxGeometry y="12" width="30" height="11" as="geometry" />
        </mxCell>
        <mxCell id="50" value="" style="whiteSpace=wrap;html=1;rounded=1;labelBackgroundColor=#ffffff;strokeColor=#d79b00;strokeWidth=2;fillColor=none;align=center;perimeterSpacing=0;" parent="48" vertex="1">
          <mxGeometry x="1" width="15" height="15" as="geometry" />
        </mxCell>
        <mxCell id="51" value="" style="whiteSpace=wrap;html=1;rounded=1;labelBackgroundColor=#ffffff;strokeColor=none;strokeWidth=2;fillColor=#D79B00;gradientColor=none;fontColor=#D79B00;align=center;" parent="48" vertex="1">
          <mxGeometry y="3" width="30" height="10" as="geometry" />
        </mxCell>
        <mxCell id="52" value="" style="endArrow=none;html=1;fillColor=#ffe6cc;strokeColor=#d79b00;strokeWidth=1;" parent="1" edge="1">
          <mxGeometry width="50" height="50" relative="1" as="geometry">
            <mxPoint x="105" y="263.5" as="sourcePoint" />
            <mxPoint x="121" y="263" as="targetPoint" />
          </mxGeometry>
        </mxCell>
        <mxCell id="53" value="Secondary&lt;br&gt;environment&lt;br&gt;directory&lt;br&gt;" style="shape=note;whiteSpace=wrap;html=1;size=14;verticalAlign=top;align=center;spacingTop=-6;fontFamily=Helvetica;fontStyle=1;fillColor=#fff2cc;strokeColor=#d6b656;" parent="1" vertex="1">
          <mxGeometry x="429" y="285" width="104" height="45" as="geometry" />
        </mxCell>
        <mxCell id="54" value="Writable&lt;br&gt;environment&lt;br&gt;&lt;span style=&quot;font-weight: normal&quot;&gt;&lt;i&gt;&lt;font style=&quot;font-size: 11px&quot;&gt;(assets)&lt;/font&gt;&lt;/i&gt;&lt;/span&gt;&lt;br&gt;" style="shape=note;whiteSpace=wrap;html=1;size=14;verticalAlign=top;align=center;spacingTop=-6;fontFamily=Helvetica;fontStyle=1;fillColor=#f8cecc;strokeColor=#b85450;" parent="1" vertex="1">
          <mxGeometry x="455" y="508" width="104" height="45" as="geometry" />
        </mxCell>
        <mxCell id="55" value="Writable&lt;br&gt;environment&lt;br&gt;directory&lt;br&gt;" style="shape=note;whiteSpace=wrap;html=1;size=14;verticalAlign=top;align=center;spacingTop=-6;fontFamily=Helvetica;fontStyle=1;fillColor=#f8cecc;strokeColor=#b85450;" parent="1" vertex="1">
          <mxGeometry x="564" y="508" width="104" height="45" as="geometry" />
        </mxCell>
        <mxCell id="56" value="Secondary&lt;br&gt;environment&lt;br&gt;&lt;span style=&quot;font-weight: normal&quot;&gt;&lt;font style=&quot;font-size: 10px&quot;&gt;&lt;i&gt;(assets)&lt;/i&gt;&lt;/font&gt;&lt;/span&gt;&lt;br&gt;" style="shape=note;whiteSpace=wrap;html=1;size=14;verticalAlign=top;align=center;spacingTop=-6;fontFamily=Helvetica;fontStyle=1;fillColor=#fff2cc;strokeColor=#d6b656;" parent="1" vertex="1">
          <mxGeometry x="429" y="336" width="106" height="45" as="geometry" />
        </mxCell>
        <mxCell id="57" value="+" style="text;html=1;resizable=0;autosize=1;align=center;verticalAlign=middle;points=[];fillColor=none;strokeColor=none;rounded=0;fontFamily=Helvetica;fontColor=#82B366;fontStyle=1;fontSize=19;" parent="1" vertex="1">
          <mxGeometry x="184" y="437" width="20" height="20" as="geometry" />
        </mxCell>
        <mxCell id="58" value="" style="shape=curlyBracket;whiteSpace=wrap;html=1;rounded=1;labelBackgroundColor=#ffffff;strokeColor=#82b366;strokeWidth=2;fillColor=#d5e8d4;align=center;" parent="1" vertex="1">
          <mxGeometry x="90" y="396" width="70" height="154" as="geometry" />
        </mxCell>
        <mxCell id="59" value="Secondary&lt;br&gt;environment&lt;br&gt;" style="shape=note;whiteSpace=wrap;html=1;size=14;verticalAlign=top;align=center;spacingTop=-6;fontFamily=Helvetica;fontStyle=1;fillColor=#fff2cc;strokeColor=#d6b656;" parent="1" vertex="1">
          <mxGeometry x="143.5" y="456" width="106" height="34" as="geometry" />
        </mxCell>
        <mxCell id="60" value="Puppet&lt;br&gt;environment&lt;br&gt;" style="shape=note;whiteSpace=wrap;html=1;size=14;verticalAlign=top;align=center;spacingTop=-6;fontFamily=Helvetica;fontStyle=1;fillColor=#dae8fc;strokeColor=#6c8ebf;" parent="1" vertex="1">
          <mxGeometry x="143.5" y="403" width="106" height="34" as="geometry" />
        </mxCell>
        <mxCell id="61" value="SIMP&lt;br&gt;&quot;Omni&quot;&lt;br&gt;environment&lt;br&gt;" style="shape=note;whiteSpace=wrap;html=1;size=14;verticalAlign=top;align=center;spacingTop=-6;fontFamily=Helvetica;fontStyle=1;fillColor=#d5e8d4;strokeColor=#82b366;" parent="1" vertex="1">
          <mxGeometry x="17" y="450" width="83" height="45" as="geometry" />
        </mxCell>
        <mxCell id="62" value="+" style="text;html=1;resizable=0;autosize=1;align=center;verticalAlign=middle;points=[];fillColor=none;strokeColor=none;rounded=0;fontFamily=Helvetica;fontColor=#82B366;fontStyle=1;fontSize=19;" parent="1" vertex="1">
          <mxGeometry x="184" y="490" width="20" height="20" as="geometry" />
        </mxCell>
        <mxCell id="63" value="Writable&lt;br&gt;environment" style="shape=note;whiteSpace=wrap;html=1;size=14;verticalAlign=top;align=center;spacingTop=-6;fontFamily=Helvetica;fontStyle=1;fillColor=#f8cecc;strokeColor=#b85450;" parent="1" vertex="1">
          <mxGeometry x="143.5" y="509" width="106" height="34" as="geometry" />
        </mxCell>
        <mxCell id="64" value="" style="shape=curlyBracket;whiteSpace=wrap;html=1;rounded=1;labelBackgroundColor=#ffffff;strokeColor=#82b366;strokeWidth=2;fillColor=#d5e8d4;align=center;flipH=1;fontStyle=1" parent="1" vertex="1">
          <mxGeometry x="230" y="450" width="70" height="100" as="geometry" />
        </mxCell>
        <mxCell id="65" style="edgeStyle=orthogonalEdgeStyle;rounded=0;orthogonalLoop=1;jettySize=auto;html=1;exitX=0.5;exitY=1;exitDx=0;exitDy=0;fontFamily=Courier New;" parent="1" edge="1">
          <mxGeometry relative="1" as="geometry">
            <mxPoint x="330" y="510" as="sourcePoint" />
            <mxPoint x="330" y="510" as="targetPoint" />
          </mxGeometry>
        </mxCell>
        <mxCell id="66" value="SIMP&lt;br&gt;&quot;Extra&quot;&lt;br&gt;environment&lt;br&gt;" style="shape=note;whiteSpace=wrap;html=1;size=14;verticalAlign=top;align=center;spacingTop=-6;fontFamily=Helvetica;fontStyle=1;fillColor=#d5e8d4;strokeColor=#82b366;" parent="1" vertex="1">
          <mxGeometry x="287" y="474" width="93" height="50" as="geometry" />
        </mxCell>
      </root>
    </mxGraphModel>
  </diagram>
</mxfile>
